<svg width="29" height="22" viewBox="0 0 29 22" fill="none" xmlns="http://www.w3.org/2000/svg">
<path d="M10.5199 3.73898L8.02935 1.68448L0.00426005 11.4128L2.4948 13.4673L10.5199 3.73898Z" fill="white"/>
<path d="M2.0545 8.89101L0 11.3815L11.7221 21.0513L13.7766 18.5608L2.0545 8.89101Z" fill="white"/>
<path d="M19.742 11.3314L17.2514 9.27691L9.23249 18.9978L11.723 21.0523L19.742 11.3314Z" fill="white"/>
<path d="M17.7081 18.1849L20.1987 20.2394L27.5151 11.3701L25.0246 9.31564L17.7081 18.1849Z" fill="white"/>
<path d="M26.082 13.1078L28.1365 10.6173L16.4144 0.94751L14.3599 3.43804L26.082 13.1078Z" fill="white"/>
<path d="M8.47585 10.5694L10.9664 12.6239L18.2829 3.75461L15.7923 1.70011L8.47585 10.5694Z" fill="white"/>
</svg>
